<svg width="223" height="33" viewBox="0 0 223 33" fill="none" xmlns="http://www.w3.org/2000/svg">
<path d="M13.0293 4.5H10.9502V13.9856L4.55384 7.27456L3.04941 8.71089L9.44391 15.4201L0.0218846 15.3208L0 17.4016L9.84993 17.5054L3.04941 24.6406L4.55384 26.0769L10.9502 19.3658V28.5H13.0293V19.1819L19.6009 26.0769L21.1053 24.6406L14.35 17.5528L23.9781 17.6542L24 15.5734L14.6585 15.475L21.1053 8.71089L19.6009 7.27456L13.0293 14.1696V4.5Z" fill="#EAAA24"/>
<path d="M49.172 26L49.184 17.708C49.184 16.74 48.924 15.984 48.404 15.44C47.892 14.888 47.224 14.612 46.4 14.612C45.92 14.612 45.464 14.724 45.032 14.948C44.6 15.164 44.248 15.508 43.976 15.98C43.704 16.444 43.568 17.04 43.568 17.768L42.44 17.312C42.424 16.392 42.612 15.588 43.004 14.9C43.404 14.204 43.948 13.664 44.636 13.28C45.324 12.896 46.1 12.704 46.964 12.704C48.316 12.704 49.38 13.116 50.156 13.94C50.932 14.756 51.32 15.856 51.32 17.24L51.308 26H49.172ZM33.668 26V13.04H35.576V16.508H35.816V26H33.668ZM41.432 26L41.444 17.792C41.444 16.8 41.188 16.024 40.676 15.464C40.164 14.896 39.484 14.612 38.636 14.612C37.796 14.612 37.116 14.9 36.596 15.476C36.076 16.052 35.816 16.816 35.816 17.768L34.688 17.096C34.688 16.256 34.888 15.504 35.288 14.84C35.688 14.176 36.232 13.656 36.92 13.28C37.608 12.896 38.388 12.704 39.26 12.704C40.132 12.704 40.892 12.888 41.54 13.256C42.188 13.624 42.688 14.152 43.04 14.84C43.392 15.52 43.568 16.332 43.568 17.276L43.556 26H41.432ZM59.9444 26.36C58.6724 26.36 57.5604 26.08 56.6084 25.52C55.6644 24.952 54.9284 24.164 54.4004 23.156C53.8724 22.14 53.6084 20.956 53.6084 19.604C53.6084 18.188 53.8684 16.964 54.3884 15.932C54.9084 14.892 55.6324 14.092 56.5604 13.532C57.4964 12.964 58.5924 12.68 59.8484 12.68C61.1524 12.68 62.2604 12.98 63.1724 13.58C64.0924 14.18 64.7804 15.036 65.2364 16.148C65.7004 17.26 65.9004 18.584 65.8364 20.12H63.6764V19.352C63.6524 17.76 63.3284 16.572 62.7044 15.788C62.0804 14.996 61.1524 14.6 59.9204 14.6C58.6004 14.6 57.5964 15.024 56.9084 15.872C56.2204 16.72 55.8764 17.936 55.8764 19.52C55.8764 21.048 56.2204 22.232 56.9084 23.072C57.5964 23.912 58.5764 24.332 59.8484 24.332C60.7044 24.332 61.4484 24.136 62.0804 23.744C62.7124 23.352 63.2084 22.788 63.5684 22.052L65.6204 22.76C65.1164 23.904 64.3564 24.792 63.3404 25.424C62.3324 26.048 61.2004 26.36 59.9444 26.36ZM55.1564 20.12V18.404H64.7324V20.12H55.1564ZM68.5081 26V13.04H70.4161V16.172L70.1041 15.764C70.2561 15.364 70.4521 14.996 70.6921 14.66C70.9401 14.324 71.2161 14.048 71.5201 13.832C71.8561 13.56 72.2361 13.352 72.6601 13.208C73.0841 13.064 73.5161 12.98 73.9561 12.956C74.3961 12.924 74.8081 12.952 75.1921 13.04V15.044C74.7441 14.924 74.2521 14.892 73.7161 14.948C73.1801 15.004 72.6841 15.2 72.2281 15.536C71.8121 15.832 71.4881 16.192 71.2561 16.616C71.0321 17.04 70.8761 17.5 70.7881 17.996C70.7001 18.484 70.6561 18.984 70.6561 19.496V26H68.5081ZM77.7013 10.748V8.54H79.8373V10.748H77.7013ZM77.7013 26V13.04H79.8373V26H77.7013ZM90.6738 26C89.9058 26.152 89.1458 26.212 88.3938 26.18C87.6498 26.156 86.9858 26.008 86.4018 25.736C85.8178 25.456 85.3738 25.024 85.0698 24.44C84.8138 23.928 84.6738 23.412 84.6498 22.892C84.6338 22.364 84.6258 21.768 84.6258 21.104V9.44H86.7618V21.008C86.7618 21.536 86.7658 21.988 86.7738 22.364C86.7898 22.74 86.8738 23.064 87.0258 23.336C87.3138 23.848 87.7698 24.148 88.3938 24.236C89.0258 24.324 89.7858 24.3 90.6738 24.164V26ZM81.9978 14.804V13.04H90.6738V14.804H81.9978ZM96.989 26.36C96.021 26.36 95.209 26.184 94.553 25.832C93.905 25.472 93.413 25 93.077 24.416C92.749 23.832 92.585 23.192 92.585 22.496C92.585 21.816 92.713 21.228 92.969 20.732C93.233 20.228 93.601 19.812 94.073 19.484C94.545 19.148 95.109 18.884 95.765 18.692C96.381 18.524 97.069 18.38 97.829 18.26C98.597 18.132 99.373 18.016 100.157 17.912C100.941 17.808 101.673 17.708 102.353 17.612L101.585 18.056C101.609 16.904 101.377 16.052 100.889 15.5C100.409 14.948 99.577 14.672 98.393 14.672C97.609 14.672 96.921 14.852 96.329 15.212C95.745 15.564 95.333 16.14 95.093 16.94L93.065 16.328C93.377 15.192 93.981 14.3 94.877 13.652C95.773 13.004 96.953 12.68 98.417 12.68C99.593 12.68 100.601 12.892 101.441 13.316C102.289 13.732 102.897 14.364 103.265 15.212C103.449 15.612 103.565 16.048 103.613 16.52C103.661 16.984 103.685 17.472 103.685 17.984V26H101.789V22.892L102.233 23.18C101.745 24.228 101.061 25.02 100.181 25.556C99.309 26.092 98.245 26.36 96.989 26.36ZM97.313 24.572C98.081 24.572 98.745 24.436 99.305 24.164C99.873 23.884 100.329 23.52 100.673 23.072C101.017 22.616 101.241 22.12 101.345 21.584C101.465 21.184 101.529 20.74 101.537 20.252C101.553 19.756 101.561 19.376 101.561 19.112L102.305 19.436C101.609 19.532 100.925 19.624 100.253 19.712C99.581 19.8 98.945 19.896 98.345 20C97.745 20.096 97.205 20.212 96.725 20.348C96.373 20.46 96.041 20.604 95.729 20.78C95.425 20.956 95.177 21.184 94.985 21.464C94.801 21.736 94.709 22.076 94.709 22.484C94.709 22.836 94.797 23.172 94.973 23.492C95.157 23.812 95.437 24.072 95.813 24.272C96.197 24.472 96.697 24.572 97.313 24.572ZM112.757 26.36C111.541 26.36 110.517 26.06 109.685 25.46C108.853 24.852 108.221 24.032 107.789 23C107.365 21.96 107.153 20.796 107.153 19.508C107.153 18.204 107.365 17.036 107.789 16.004C108.221 14.972 108.853 14.16 109.685 13.568C110.525 12.976 111.553 12.68 112.769 12.68C113.969 12.68 115.001 12.98 115.865 13.58C116.737 14.172 117.405 14.984 117.869 16.016C118.333 17.048 118.565 18.212 118.565 19.508C118.565 20.804 118.333 21.968 117.869 23C117.405 24.032 116.737 24.852 115.865 25.46C115.001 26.06 113.965 26.36 112.757 26.36ZM106.793 26V8.72H108.941V16.46H108.701V26H106.793ZM112.493 24.404C113.349 24.404 114.057 24.188 114.617 23.756C115.177 23.324 115.597 22.74 115.877 22.004C116.157 21.26 116.297 20.428 116.297 19.508C116.297 18.596 116.157 17.772 115.877 17.036C115.605 16.3 115.181 15.716 114.605 15.284C114.037 14.852 113.313 14.636 112.433 14.636C111.593 14.636 110.897 14.844 110.345 15.26C109.793 15.668 109.381 16.24 109.109 16.976C108.837 17.704 108.701 18.548 108.701 19.508C108.701 20.452 108.833 21.296 109.097 22.04C109.369 22.776 109.785 23.356 110.345 23.78C110.905 24.196 111.621 24.404 112.493 24.404ZM121.196 26V13.04H123.104V16.172L122.792 15.764C122.944 15.364 123.14 14.996 123.38 14.66C123.628 14.324 123.904 14.048 124.208 13.832C124.544 13.56 124.924 13.352 125.348 13.208C125.772 13.064 126.204 12.98 126.644 12.956C127.084 12.924 127.496 12.952 127.88 13.04V15.044C127.432 14.924 126.94 14.892 126.404 14.948C125.868 15.004 125.372 15.2 124.916 15.536C124.5 15.832 124.176 16.192 123.944 16.616C123.72 17.04 123.564 17.5 123.476 17.996C123.388 18.484 123.344 18.984 123.344 19.496V26H121.196ZM130.389 10.748V8.54H132.525V10.748H130.389ZM130.389 26V13.04H132.525V26H130.389ZM136.365 26V8.36H138.501V26H136.365ZM151.33 26V19.508C151.33 18.892 151.274 18.3 151.162 17.732C151.058 17.164 150.87 16.656 150.598 16.208C150.334 15.752 149.974 15.392 149.518 15.128C149.07 14.864 148.502 14.732 147.814 14.732C147.278 14.732 146.79 14.824 146.35 15.008C145.918 15.184 145.546 15.456 145.234 15.824C144.922 16.192 144.678 16.656 144.502 17.216C144.334 17.768 144.25 18.42 144.25 19.172L142.846 18.74C142.846 17.484 143.07 16.408 143.518 15.512C143.974 14.608 144.61 13.916 145.426 13.436C146.25 12.948 147.218 12.704 148.33 12.704C149.17 12.704 149.886 12.836 150.478 13.1C151.07 13.364 151.562 13.716 151.954 14.156C152.346 14.588 152.654 15.076 152.878 15.62C153.102 16.156 153.258 16.704 153.346 17.264C153.442 17.816 153.49 18.34 153.49 18.836V26H151.33ZM142.09 26V8.72H144.01V18.26H144.25V26H142.09ZM160.294 26.36C159.326 26.36 158.514 26.184 157.858 25.832C157.21 25.472 156.718 25 156.382 24.416C156.054 23.832 155.89 23.192 155.89 22.496C155.89 21.816 156.018 21.228 156.274 20.732C156.538 20.228 156.906 19.812 157.378 19.484C157.85 19.148 158.414 18.884 159.07 18.692C159.686 18.524 160.374 18.38 161.134 18.26C161.902 18.132 162.678 18.016 163.462 17.912C164.246 17.808 164.978 17.708 165.658 17.612L164.89 18.056C164.914 16.904 164.682 16.052 164.194 15.5C163.714 14.948 162.882 14.672 161.698 14.672C160.914 14.672 160.226 14.852 159.634 15.212C159.05 15.564 158.638 16.14 158.398 16.94L156.37 16.328C156.682 15.192 157.286 14.3 158.182 13.652C159.078 13.004 160.258 12.68 161.722 12.68C162.898 12.68 163.906 12.892 164.746 13.316C165.594 13.732 166.202 14.364 166.57 15.212C166.754 15.612 166.87 16.048 166.918 16.52C166.966 16.984 166.99 17.472 166.99 17.984V26H165.094V22.892L165.538 23.18C165.05 24.228 164.366 25.02 163.486 25.556C162.614 26.092 161.55 26.36 160.294 26.36ZM160.618 24.572C161.386 24.572 162.05 24.436 162.61 24.164C163.178 23.884 163.634 23.52 163.978 23.072C164.322 22.616 164.546 22.12 164.65 21.584C164.77 21.184 164.834 20.74 164.842 20.252C164.858 19.756 164.866 19.376 164.866 19.112L165.61 19.436C164.914 19.532 164.23 19.624 163.558 19.712C162.886 19.8 162.25 19.896 161.65 20C161.05 20.096 160.51 20.212 160.03 20.348C159.678 20.46 159.346 20.604 159.034 20.78C158.73 20.956 158.482 21.184 158.29 21.464C158.106 21.736 158.014 22.076 158.014 22.484C158.014 22.836 158.102 23.172 158.278 23.492C158.462 23.812 158.742 24.072 159.118 24.272C159.502 24.472 160.002 24.572 160.618 24.572ZM179.338 26V19.508C179.338 18.892 179.282 18.3 179.17 17.732C179.066 17.164 178.878 16.656 178.606 16.208C178.342 15.752 177.982 15.392 177.526 15.128C177.078 14.864 176.51 14.732 175.822 14.732C175.286 14.732 174.798 14.824 174.358 15.008C173.926 15.184 173.554 15.456 173.242 15.824C172.93 16.192 172.686 16.656 172.51 17.216C172.342 17.768 172.258 18.42 172.258 19.172L170.854 18.74C170.854 17.484 171.078 16.408 171.526 15.512C171.982 14.608 172.618 13.916 173.434 13.436C174.258 12.948 175.226 12.704 176.338 12.704C177.178 12.704 177.894 12.836 178.486 13.1C179.078 13.364 179.57 13.716 179.962 14.156C180.354 14.588 180.662 15.076 180.886 15.62C181.11 16.156 181.266 16.704 181.354 17.264C181.45 17.816 181.498 18.34 181.498 18.836V26H179.338ZM170.098 26V13.04H172.018V16.508H172.258V26H170.098ZM191.854 26C191.086 26.152 190.326 26.212 189.574 26.18C188.83 26.156 188.166 26.008 187.582 25.736C186.998 25.456 186.554 25.024 186.25 24.44C185.994 23.928 185.854 23.412 185.83 22.892C185.814 22.364 185.806 21.768 185.806 21.104V9.44H187.942V21.008C187.942 21.536 187.946 21.988 187.954 22.364C187.97 22.74 188.054 23.064 188.206 23.336C188.494 23.848 188.95 24.148 189.574 24.236C190.206 24.324 190.966 24.3 191.854 24.164V26ZM183.178 14.804V13.04H191.854V14.804H183.178ZM199.562 26.36C198.29 26.36 197.178 26.08 196.226 25.52C195.282 24.952 194.546 24.164 194.018 23.156C193.49 22.14 193.226 20.956 193.226 19.604C193.226 18.188 193.486 16.964 194.006 15.932C194.526 14.892 195.25 14.092 196.178 13.532C197.114 12.964 198.21 12.68 199.466 12.68C200.77 12.68 201.878 12.98 202.79 13.58C203.71 14.18 204.398 15.036 204.854 16.148C205.318 17.26 205.518 18.584 205.454 20.12H203.294V19.352C203.27 17.76 202.946 16.572 202.322 15.788C201.698 14.996 200.77 14.6 199.538 14.6C198.218 14.6 197.214 15.024 196.526 15.872C195.838 16.72 195.494 17.936 195.494 19.52C195.494 21.048 195.838 22.232 196.526 23.072C197.214 23.912 198.194 24.332 199.466 24.332C200.322 24.332 201.066 24.136 201.698 23.744C202.33 23.352 202.826 22.788 203.186 22.052L205.238 22.76C204.734 23.904 203.974 24.792 202.958 25.424C201.95 26.048 200.818 26.36 199.562 26.36ZM194.774 20.12V18.404H204.35V20.12H194.774ZM206.445 28.676V26.912H222.285V28.676H206.445Z" fill="white"/>
</svg>
